<svg id="google-streetview-svgrepo-com" xmlns="http://www.w3.org/2000/svg" width="38.783" height="34.969" viewBox="0 0 38.783 34.969">
  <path id="Path_70" data-name="Path 70" d="M5,5.828C5,2.609,7.894,0,11.464,0s6.464,2.609,6.464,5.828-2.894,5.828-6.464,5.828S5,9.047,5,5.828Z" transform="translate(7.928)" style="
    fill: currentColor;
"></path>
  <path id="Path_71" data-name="Path 71" d="M13.049,6C8.052,6,4,9.653,4,14.159v4.663a1.234,1.234,0,0,0,1.293,1.166H20.806A1.234,1.234,0,0,0,22.1,18.822V14.159C22.1,9.653,18.047,6,13.049,6Z" transform="translate(6.342 7.988)" style="
    fill: currentColor;
"></path>
  <path id="Path_72" data-name="Path 72" d="M3.605,13.029A2.631,2.631,0,0,0,2.586,14.9a2.657,2.657,0,0,0,1.05,1.9A11.165,11.165,0,0,0,7.1,18.779a35.415,35.415,0,0,0,12.288,1.954A35.416,35.416,0,0,0,31.68,18.779a11.165,11.165,0,0,0,3.468-1.971,2.657,2.657,0,0,0,1.05-1.9,2.631,2.631,0,0,0-1.02-1.876,10.894,10.894,0,0,0-3.376-1.95l1.036-2.136A13.454,13.454,0,0,1,37.031,11.4a4.829,4.829,0,0,1,1.752,3.5,4.858,4.858,0,0,1-1.795,3.541,13.726,13.726,0,0,1-4.29,2.476,38.2,38.2,0,0,1-13.307,2.143A38.2,38.2,0,0,1,6.085,20.922a13.723,13.723,0,0,1-4.29-2.476A4.857,4.857,0,0,1,0,14.9a4.829,4.829,0,0,1,1.752-3.5A13.451,13.451,0,0,1,5.946,8.942l1.036,2.136A10.9,10.9,0,0,0,3.605,13.029Z" transform="translate(0 11.905)" style="
    fill: currentColor;
"></path>
</svg>