<svg xmlns="http://www.w3.org/2000/svg" width="31.892" height="19.135" viewBox="0 0 31.892 19.135">
  <path id="bed-svgrepo-com_1_" data-name="bed-svgrepo-com (1)" d="M9.77,12.968A3.986,3.986,0,1,0,5.784,8.981,3.991,3.991,0,0,0,9.77,12.968ZM27.311,6.589H16.149a.8.8,0,0,0-.8.8v7.176H4.189V4.2a.8.8,0,0,0-.8-.8H1.8a.8.8,0,0,0-.8.8V21.738a.8.8,0,0,0,.8.8H3.392a.8.8,0,0,0,.8-.8V19.346H29.7v2.392a.8.8,0,0,0,.8.8h1.595a.8.8,0,0,0,.8-.8V12.17A5.581,5.581,0,0,0,27.311,6.589Z" transform="translate(-1 -3.4)" fill="#202020"/>
</svg>
