<svg xmlns="http://www.w3.org/2000/svg" width="31.892" height="22.84" viewBox="0 0 31.892 22.84">
  <g id="caravan-trailer-svgrepo-com" transform="translate(0 -72.663)">
    <g id="Group_288" data-name="Group 288" transform="translate(0 72.663)">
      <path id="Path_118" data-name="Path 118" d="M28.772,72.663H9.36a3.123,3.123,0,0,0-3.12,3.12V89.3H1.04a1.04,1.04,0,0,0,0,2.08H19.393a4.169,4.169,0,0,0,8.337,0h1.043a3.123,3.123,0,0,0,3.12-3.12V75.783A3.123,3.123,0,0,0,28.772,72.663ZM16.639,89.3h-4.16V78.9h4.16Zm6.922,4.121a2.091,2.091,0,1,1,2.091-2.091A2.094,2.094,0,0,1,23.561,93.423Zm6.251-10.36h-6.24V78.9h6.24Z" transform="translate(0 -72.663)" fill="#202020"/>
    </g>
  </g>
</svg>
