<svg xmlns="http://www.w3.org/2000/svg" width="19.788" height="27.994" viewBox="0 0 19.788 27.994">
  <g id="Caravan-External-Width" transform="translate(-312.251 -358.646)">
    <g id="External-Width" transform="translate(302.21 350.096)">
      <path id="Path_1199" data-name="Path 1199" d="M16.4,22.894a.425.425,0,0,1-.41.333H14.464a.419.419,0,0,1-.415-.418v-.754a.419.419,0,0,1,.245-.382l.243-.108a.448.448,0,0,1,.17-.036.422.422,0,0,1,.232.07l1.29.864a.416.416,0,0,1,.173.432Zm-1.2-4.408h9.471a.6.6,0,0,0,.449-.2.609.609,0,0,0,.145-.472l-.638-4.966a.6.6,0,0,0-.593-.516h-8.2a.6.6,0,0,0-.593.516l-.638,4.966a.609.609,0,0,0,.145.472.6.6,0,0,0,.449.2Zm5.91,3.218H18.767a.775.775,0,0,0,0,1.523h2.348a.774.774,0,1,0,0-1.523Zm-2.3-11.32h2.251a.7.7,0,0,0,.7-.694V8.549H18.119V9.691a.7.7,0,0,0,.7.694Zm6.773,11.288-.243-.108a.448.448,0,0,0-.17-.036.422.422,0,0,0-.232.07l-1.29.864a.416.416,0,0,0-.178.432.423.423,0,0,0,.41.333h1.527a.419.419,0,0,0,.416-.418v-.754a.42.42,0,0,0-.24-.382Zm2.23,3.419h0a2.228,2.228,0,0,1-2.22,2.34H14.284a2.228,2.228,0,0,1-2.22-2.34v-.026h13.3a.258.258,0,1,0,0-.516H12.1l.165-3.117.635-10.22h0A2.216,2.216,0,0,1,13.747,9.6l.736-.576a2.226,2.226,0,0,1,1.37-.475h1.755V9.69A1.216,1.216,0,0,0,18.821,10.9h2.25A1.215,1.215,0,0,0,22.284,9.69V8.549H24.04a2.228,2.228,0,0,1,1.37.475l.725.576a2.217,2.217,0,0,1,.847,1.612l.635,10.217ZM14.369,18.625a1.109,1.109,0,0,0,.836.376h9.471a1.112,1.112,0,0,0,1.105-1.254l-.638-4.965a1.115,1.115,0,0,0-1.1-.974h-8.2a1.115,1.115,0,0,0-1.1.974L14.1,17.747a1.113,1.113,0,0,0,.269.878Zm2.145,3.407-1.29-.862h0a.926.926,0,0,0-.9-.075l-.243.108a.933.933,0,0,0-.55.852v.754a.934.934,0,0,0,.932.934h1.533a.934.934,0,0,0,.516-1.711Zm5.879.434a1.289,1.289,0,0,0-1.29-1.29H18.754a1.29,1.29,0,0,0,0,2.555H21.1a1.29,1.29,0,0,0,1.29-1.265Zm3.956-.41a.93.93,0,0,0-.55-.852l-.243-.108h0a.928.928,0,0,0-.9.075l-1.29.862a.934.934,0,0,0,.516,1.711h1.528a.934.934,0,0,0,.932-.934ZM14.285,27.95c-.077,0-.154-.007-.23-.015v.258h0a.888.888,0,0,0,.888.888H16.8a.888.888,0,0,0,.886-.888v-.258ZM12.143,15.02h-.258a1.452,1.452,0,0,0-1.4,1.032l-.382,1.273a1.461,1.461,0,0,0,1.4,1.892h.376ZM25.6,27.95h-3.4v.258h0a.888.888,0,0,0,.886.888h1.86a.889.889,0,0,0,.888-.888v-.258h0a2.284,2.284,0,0,1-.23,0Zm4.178-10.626-.392-1.273h0a1.452,1.452,0,0,0-1.4-1.032H27.73l.258,4.2h.376a1.46,1.46,0,0,0,1.4-1.892Z"/>
    </g>
    <g id="Group_802" data-name="Group 802" transform="translate(313.456 381.245)">
      <line id="Line_109" data-name="Line 109" x2="15.452" transform="translate(0.775 2.697)" fill="none" stroke="#000" stroke-width="1"/>
      <path id="Polygon_3" data-name="Polygon 3" d="M2.7,0l2.7,2.076H0Z" transform="translate(-0.001 5.394) rotate(-90)" fill="#202020"/>
      <path id="Polygon_4" data-name="Polygon 4" d="M2.7,0l2.7,2.076H0Z" transform="translate(17.379 0) rotate(90)" fill="#202020"/>
    </g>
  </g>
</svg>
