<svg xmlns="http://www.w3.org/2000/svg" width="34.635" height="31.019" viewBox="0 0 34.635 31.019">
  <g id="gallery-svgrepo-com" transform="translate(1.756 1.25)">
    <path id="Path_68" data-name="Path 68" d="M2,16.259C2,9.537,2,6.176,4.316,4.088S10.359,2,17.814,2,29,2,31.313,4.088s2.316,5.449,2.316,12.171,0,10.083-2.316,12.171-6.044,2.088-13.5,2.088-11.183,0-13.5-2.088S2,22.981,2,16.259Z" transform="translate(-2 -2)" fill="none" stroke="currentColor" stroke-width="2.5"/>
    <ellipse id="Ellipse_9" data-name="Ellipse 9" cx="3.327" cy="3" rx="3.327" ry="3" transform="translate(18.854 5.519)" fill="none" stroke="currentColor" stroke-width="2.5"/>
    <path id="Path_69" data-name="Path 69" d="M2,13.4,4.77,11.21a3.931,3.931,0,0,1,4.967.149l6.784,6.117a3.424,3.424,0,0,0,4.055.317l.472-.3a5.15,5.15,0,0,1,5.9.32l5.1,4.137" transform="translate(-2 1.577)" fill="none" stroke="currentColor" stroke-linecap="round" stroke-width="2.5"/>
  </g>
</svg>
