<svg xmlns="http://www.w3.org/2000/svg" xmlns:xlink="http://www.w3.org/1999/xlink" width="29.25" height="21.831" viewBox="0 0 29.25 21.831">
  <defs>
    <clipPath id="clip-path">
      <rect id="Rectangle_168" data-name="Rectangle 168" width="29.25" height="21.831" fill="#fff"/>
    </clipPath>
  </defs>
  <g id="download" clip-path="url(#clip-path)">
    <path id="Path_122" data-name="Path 122" d="M17.7,17.8H3.264A2.375,2.375,0,0,1,.886,15.424V3.264A2.375,2.375,0,0,1,3.264.886H26.569a2.375,2.375,0,0,1,2.378,2.378v12.16A2.375,2.375,0,0,1,26.569,17.8h-2.3l-3.21,3.726" transform="translate(-0.292 -0.292)" fill="none" stroke="#202020" stroke-linecap="round" stroke-linejoin="round" stroke-width="2.5"/>
    <path id="Path_123" data-name="Path 123" d="M26.845.886V5.4a2.622,2.622,0,0,0,2.624,2.624h7.562" transform="translate(-8.835 -0.292)" fill="none" stroke="#202020" stroke-linecap="round" stroke-linejoin="round" stroke-width="2.5"/>
    <path id="Path_124" data-name="Path 124" d="M7.728.886v2.3a2.622,2.622,0,0,0,2.624,2.624h9.687" transform="translate(-2.543 -0.292)" fill="none" stroke="#202020" stroke-linecap="round" stroke-linejoin="round" stroke-width="2.5"/>
    <path id="Path_125" data-name="Path 125" d="M7.728,22.614V19.839a2.622,2.622,0,0,1,2.624-2.624H13.99a2.626,2.626,0,0,1,2.584,2.148l.594,3.25" transform="translate(-2.543 -5.666)" fill="none" stroke="#202020" stroke-linecap="round" stroke-linejoin="round" stroke-width="2.5"/>
  </g>
</svg>
