<svg xmlns="http://www.w3.org/2000/svg" width="32.763" height="28.541" viewBox="0 0 32.763 28.541">
  <g id="Length" transform="translate(-579.692 -256.077)">
    <g id="noun-recreational-vehicle-3926426" transform="translate(579.691 256.077)">
      <path id="Path_1162" data-name="Path 1162" d="M38.59,22.785h6.36v-.352a1.447,1.447,0,0,0-1.444-1.444H38.59Z" transform="translate(-26.432 -20.99)" fill="#202020"/>
      <rect id="Rectangle_337" data-name="Rectangle 337" width="2.362" height="2.051" transform="translate(19.543 17.433)" fill="#202020"/>
      <path id="Path_1163" data-name="Path 1163" d="M8.187,69.124a3.25,3.25,0,0,1,.174-1.044H5.77v1.011a1.04,1.04,0,0,0,1.04,1.04H8.358A3.243,3.243,0,0,1,8.187,69.124Z" transform="translate(-5.762 -50.647)" fill="#202020"/>
      <path id="Path_1164" data-name="Path 1164" d="M38.513,30.682a3.332,3.332,0,0,0-3.332-3.332H7.464A1.718,1.718,0,0,0,5.75,29.071v12.8H8.593a3.276,3.276,0,0,1,5.723,0h4.072V32.492a.281.281,0,0,1,.278-.278h6.349a.281.281,0,0,1,.278.278v9.381h2.362V31.744h0a.278.278,0,0,1,.278-.278h9.8a.781.781,0,0,0,.781-.785ZM15.19,37.512a.278.278,0,0,1-.278.278H8.452a.281.281,0,0,1-.278-.278v-5.02a.281.281,0,0,1,.278-.278H14.9a.278.278,0,0,1,.278.278Z" transform="translate(-5.75 -24.995)" fill="#202020"/>
      <path id="Path_1165" data-name="Path 1165" d="M33.384,70.131V68.08H29.56a3.354,3.354,0,0,1,.163,1.044,3.239,3.239,0,0,1-.159,1.007Z" transform="translate(-20.745 -50.647)" fill="#202020"/>
      <path id="Path_1166" data-name="Path 1166" d="M66.42,40v9.84h2.751a3.276,3.276,0,0,1,5.723,0h1.829V46.878L73.894,40Zm7.989,6.371a.281.281,0,0,1-.233.122H68.649a.274.274,0,0,1-.278-.278V42.2a.278.278,0,0,1,.278-.278h3.791a.281.281,0,0,1,.255.167l1.714,4.024A.289.289,0,0,1,74.409,46.371Z" transform="translate(-43.96 -32.962)" fill="#202020"/>
      <path id="Path_1167" data-name="Path 1167" d="M91.573,70.131V68.08H90a3.239,3.239,0,0,1,0,2.051Z" transform="translate(-58.81 -50.647)" fill="#202020"/>
      <path id="Path_1168" data-name="Path 1168" d="M68.752,69.124a3.25,3.25,0,0,1,.174-1.044H66.42v2.051h2.491A3.354,3.354,0,0,1,68.752,69.124Z" transform="translate(-43.96 -50.647)" fill="#202020"/>
      <path id="Path_1169" data-name="Path 1169" d="M73.19,46.68v3.465h4.816L76.518,46.68Z" transform="translate(-48.224 -37.17)" fill="#202020"/>
      <path id="Path_1170" data-name="Path 1170" d="M19.249,66.265a2.725,2.725,0,1,0-2.725,2.725,2.725,2.725,0,0,0,2.725-2.725Z" transform="translate(-10.82 -47.788)" fill="#202020"/>
      <path id="Path_1171" data-name="Path 1171" d="M79.669,66.265a2.725,2.725,0,1,0-2.725,2.725,2.725,2.725,0,0,0,2.725-2.725Z" transform="translate(-48.872 -47.788)" fill="#202020"/>
      <path id="Path_1172" data-name="Path 1172" d="M47.169,42H41.39V53.706h5.779Zm-4.72,5.016a.278.278,0,1,1,.555,0v1.307a.278.278,0,0,1-.555,0Z" transform="translate(-28.196 -34.222)" fill="#202020"/>
      <rect id="Rectangle_338" data-name="Rectangle 338" width="5.89" height="4.461" transform="translate(2.98 7.774)" fill="#202020"/>
    </g>
    <g id="Group_743" data-name="Group 743" transform="translate(579.692 279.224)">
      <line id="Line_109" data-name="Line 109" x2="30.836" transform="translate(0.775 2.697)" fill="none" stroke="#000" stroke-width="1"/>
      <path id="Polygon_3" data-name="Polygon 3" d="M2.7,0l2.7,2.076H0Z" transform="translate(-0.001 5.394) rotate(-90)" fill="#202020"/>
      <path id="Polygon_4" data-name="Polygon 4" d="M2.7,0l2.7,2.076H0Z" transform="translate(32.762 0) rotate(90)" fill="#202020"/>
    </g>
  </g>
</svg>
