<svg xmlns="http://www.w3.org/2000/svg" width="15.93" height="22.982" viewBox="0 0 15.93 22.982">
  <path id="Icon_awesome-mobile-alt" data-name="Icon awesome-mobile-alt" d="M13.541,0H2.39A2.282,2.282,0,0,0,0,2.155V20.827a2.282,2.282,0,0,0,2.39,2.155H13.541a2.282,2.282,0,0,0,2.39-2.155V2.155A2.282,2.282,0,0,0,13.541,0ZM7.965,21.545a1.444,1.444,0,1,1,0-2.873,1.444,1.444,0,1,1,0,2.873ZM13.541,16.7a.572.572,0,0,1-.6.539H2.987a.572.572,0,0,1-.6-.539v-14a.572.572,0,0,1,.6-.539h9.956a.572.572,0,0,1,.6.539Z" fill="#202020"/>
</svg>
