<svg xmlns="http://www.w3.org/2000/svg" width="19.201" height="19.201" viewBox="0 0 19.201 19.201">
  <g id="tire-svgrepo-com" transform="translate(-0.001)">
    <path id="Path_107" data-name="Path 107" d="M9.6,0a9.6,9.6,0,1,0,9.6,9.6A9.6,9.6,0,0,0,9.6,0Zm0,15.72A6.12,6.12,0,1,1,15.721,9.6,6.119,6.119,0,0,1,9.6,15.72Z" fill="#202020"/>
    <path id="Path_108" data-name="Path 108" d="M240.812,241.4a.592.592,0,1,0-.592-.592A.591.591,0,0,0,240.812,241.4Z" transform="translate(-231.21 -231.211)" fill="#202020"/>
    <path id="Path_109" data-name="Path 109" d="M150.112,137.657a.388.388,0,0,0,.244.233l2.109.686a.645.645,0,0,0,.845-.614v-2.216a.388.388,0,0,0-.476-.377s.031-.024-.182.043a4.7,4.7,0,0,0-2.434,1.788c-.121.172-.074.123-.074.123A.389.389,0,0,0,150.112,137.657Z" transform="translate(-144.459 -130.283)" fill="#202020"/>
    <path id="Path_110" data-name="Path 110" d="M134.053,241.571a.643.643,0,0,0-.414-.414l-2.108-.685a.387.387,0,0,0-.505.336s-.013-.037-.015.186a4.7,4.7,0,0,0,.948,2.867c.126.168.093.108.093.108a.387.387,0,0,0,.606-.026l1.3-1.795A.646.646,0,0,0,134.053,241.571Z" transform="translate(-126.096 -231.436)" fill="#202020"/>
    <path id="Path_111" data-name="Path 111" d="M207.8,302.388a.645.645,0,0,0-1.044,0l-1.3,1.793a.388.388,0,0,0,.164.585s-.04,0,.172.072a4.7,4.7,0,0,0,3.019-.016c.2-.068.132-.055.132-.055a.387.387,0,0,0,.163-.584Z" transform="translate(-197.681 -290.792)" fill="#202020"/>
    <path id="Path_112" data-name="Path 112" d="M301.577,240.451l-2.109.686a.644.644,0,0,0-.322.992l1.3,1.793a.387.387,0,0,0,.607.025s-.011.038.122-.142a4.7,4.7,0,0,0,.919-2.877c0-.209-.012-.142-.012-.142a.387.387,0,0,0-.505-.335Z" transform="translate(-287.808 -231.415)" fill="#202020"/>
    <path id="Path_113" data-name="Path 113" d="M276.278,138.44a.648.648,0,0,0,.578.092l2.108-.686a.386.386,0,0,0,.211-.569s.033.022-.1-.159a4.7,4.7,0,0,0-2.452-1.763c-.2-.061-.14-.032-.14-.032a.388.388,0,0,0-.475.377v2.218A.647.647,0,0,0,276.278,138.44Z" transform="translate(-265.66 -130.238)" fill="#202020"/>
  </g>
</svg>
