<svg xmlns="http://www.w3.org/2000/svg" width="42.261" height="26.6" viewBox="0 0 42.261 26.6">
  <path id="video-svgrepo-com" d="M31.355,13.867l5.62-3.041c1.73-.936,2.595-1.4,3.307-1.344a2.245,2.245,0,0,1,1.556.794c.423.519.423,1.429.423,3.248v8.551c0,1.819,0,2.729-.423,3.248a2.245,2.245,0,0,1-1.556.794c-.712.06-1.577-.408-3.307-1.344l-5.62-3.041M9.98,29.6h14.4c2.443,0,3.665,0,4.6-.429a4.173,4.173,0,0,0,1.906-1.719c.475-.841.475-1.943.475-4.146V12.293c0-2.2,0-3.3-.475-4.146a4.173,4.173,0,0,0-1.906-1.719C28.04,6,26.819,6,24.376,6H9.98c-2.443,0-3.665,0-4.6.429A4.173,4.173,0,0,0,3.475,8.148C3,8.989,3,10.09,3,12.293V23.307c0,2.2,0,3.3.475,4.146a4.173,4.173,0,0,0,1.906,1.719C6.315,29.6,7.537,29.6,9.98,29.6Z" transform="translate(-1.5 -4.5)" fill="none" stroke="currentColor" stroke-linecap="round" stroke-linejoin="round" stroke-width="3"/>
</svg>
