<svg xmlns="http://www.w3.org/2000/svg" width="19.201" height="20.479" viewBox="0 0 19.201 20.479">
  <path id="Icon_awesome-shield-alt" data-name="Icon awesome-shield-alt" d="M19.146,3.349l-7.68-3.2a1.926,1.926,0,0,0-1.476,0l-7.68,3.2A1.918,1.918,0,0,0,1.125,5.121c0,7.94,4.58,13.429,8.861,15.213a1.926,1.926,0,0,0,1.476,0c3.428-1.428,8.865-6.36,8.865-15.213A1.921,1.921,0,0,0,19.146,3.349Zm-8.417,14.5,0-15.241,7.036,2.932C17.63,11.6,14.478,15.99,10.73,17.854Z" transform="translate(-1.125 -0.002)" fill="#202020"/>
</svg>
