<svg id="whatsapp-whats-app-svgrepo-com" xmlns="http://www.w3.org/2000/svg" width="21.12" height="22.528" viewBox="0 0 21.12 22.528">
  <path id="Path_139" data-name="Path 139" d="M12.56,0A10.546,10.546,0,0,0,2,10.56a10.208,10.208,0,0,0,2.253,6.477L2.774,21.542a.794.794,0,0,0,.211.774.5.5,0,0,0,.422.211.423.423,0,0,0,.282-.07l4.858-2.182a9.771,9.771,0,0,0,4.013.845A10.56,10.56,0,0,0,12.56,0Z" transform="translate(-2)" fill="#25d366"/>
  <path id="Path_140" data-name="Path 140" d="M20.757,16.5a2.978,2.978,0,0,1-2.253,1.69,2.17,2.17,0,0,1-.7.07,7.474,7.474,0,0,1-2.886-.774A11.6,11.6,0,0,1,10.2,13.406v-.07a5.967,5.967,0,0,1-1.2-3.1,3.809,3.809,0,0,1,1.056-2.675A1.966,1.966,0,0,1,11.464,7h.352c.493,0,.845.141,1.2.845l.282.563a8.307,8.307,0,0,0,.563,1.267,1.079,1.079,0,0,1,0,1.126,1.263,1.263,0,0,1-.352.493q-.106.211-.211.211l-.141.141a6.444,6.444,0,0,0,1.2,1.478,5.157,5.157,0,0,0,1.83,1.126h0c.141-.141.282-.422.493-.634l.07-.141a1.21,1.21,0,0,1,1.478-.422c.282.141,1.83.845,1.83.845l.141.07c.211.141.493.211.634.493A3.331,3.331,0,0,1,20.757,16.5Z" transform="translate(-4.072 -2.072)" fill="#fff"/>
</svg>
